# xmcd CD database file
#
# Track frame offsets:
#	150
#	18312
#	35222
#	57744
#	76391
#	89131
#	105323
#	112221
#	130644
#	148832
#	167722
#	185438
#	205157
#	221710
#	238229
#	251330
#
# Disc length: 3520 seconds
#
# Revision: 1
# Processed by: cddbd v1.5.1PL2 Copyright (c) Steve Scherf et al.
# Submitted via: CDex 1.51
#
DISCID=f10dbe10
DTITLE=Panorama Jazz Band - Panoramaland
DYEAR=2005
DGENRE=Jazz
TTITLE0=Jungle Blues
TTITLE1=Pani Ti Moun
TTITLE2=Ai Raci Ku Ne Draci
TTITLE3=Alievo Oro
TTITLE4=Don't Touch Me Tomato
TTITLE5=Carmencita
TTITLE6=Five-Alarm Chili
TTITLE7=Some of These Days
TTITLE8=Heartsick Nora
TTITLE9=Bei Mir Bist Du Schoen
TTITLE10=El Zopilote Mojado
TTITLE11=Bolero
TTITLE12=Wie Bist Die Gewesen Vor Prohibition
TTITLE13=If You Love Me
TTITLE14=Lihnida Jajce Veslase
TTITLE15=Renee
EXTD=YEAR: 2005
EXTT0=
EXTT1=
EXTT2=
EXTT3=
EXTT4=
EXTT5=
EXTT6=
EXTT7=
EXTT8=
EXTT9=
EXTT10=
EXTT11=
EXTT12=
EXTT13=
EXTT14=
EXTT15=
PLAYORDER=
